<svg xmlns="http://www.w3.org/2000/svg" width="447" height="362.74" viewBox="0 0 447 362.74">
  <g id="undraw_Personal_goals_re_iow7" transform="translate(0 -0.001)">
    <path id="Path_2" data-name="Path 2" d="M677.2,384.4c-.49.943-1,1.87-1.53,2.791-20.249,35.276-67.351,57.184-146.789,45.589-45.1-6.9-64.313,18.4-82.912,44.312-.318.447-.636.894-.959,1.342-19.478,27.172-38.762,54.42-86.98,45.363-51.117-8.082-82.664-49.587-87.546-93.9-.059-.539-.113-1.083-.162-1.622-2.742-28.729,5.733-58.477,27.356-80.935,13.061-13.562,31.618-20.766,50.772-20.539a93.328,93.328,0,0,0,17.22-1.277c1.255-.221,2.473-.463,3.659-.738,24.4-5.577,35.648-22.156,42.545-42.388.162-.48.323-.959.48-1.444,15.836-48.251,8.513-115.974,94.6-106.011,77.039,5.679,133.577,48.4,161.309,97.681.275.5.55.991.819,1.487a150.324,150.324,0,0,1,16.121,43.811c.173.862.329,1.724.474,2.586C689.6,343.4,687.033,365.645,677.2,384.4Z" transform="translate(-249.951 -162.829)" fill="#f2f2f2"/>
    <path id="Path_3" data-name="Path 3" d="M757.366,335.43a117.979,117.979,0,0,1-18.573,17.732c-26.558,20.367-60.2,31.413-93.382,33.73a185.53,185.53,0,0,1-50.929-3.459c-17.026-3.567-33.266-9.849-48.994-17.188-15.3-7.139-30.141-15.189-45.336-22.528.162-.479.323-.959.48-1.444,16.568,7.974,32.8,16.762,49.56,24.36,15.793,7.161,32.14,13,49.237,16.127a184.881,184.881,0,0,0,51.715,2.026c33.094-3.33,66.759-15.539,92.2-37.383a110.088,110.088,0,0,0,13.2-13.459C756.821,334.438,757.1,334.934,757.366,335.43Z" transform="translate(-338.231 -224.148)" fill="#090118"/>
    <path id="Path_4" data-name="Path 4" d="M685.442,156.736c-.039,0-.077,0-.116,0a77.759,77.759,0,0,0,0,155.2,1.774,1.774,0,0,0,1.337-.48,1.755,1.755,0,0,0,.559-1.292V158.512A1.78,1.78,0,0,0,685.442,156.736Z" transform="translate(-381.291 -156.229)" fill="#46b7c5"/>
    <path id="Path_5" data-name="Path 5" d="M797.781,285.85a2.289,2.289,0,0,1-1.615-.668l-52.8-52.8a2.265,2.265,0,0,1-.668-1.612V158.2a2.257,2.257,0,0,1,.719-1.661,2.291,2.291,0,0,1,1.716-.617,78.267,78.267,0,0,1,54.377,129.14,2.292,2.292,0,0,1-1.643.789Z" transform="translate(-431.192 -155.914)" fill="#f9d2b6"/>
    <path id="Path_6" data-name="Path 6" d="M744.986,365.7a2.3,2.3,0,0,1-1.569-.621,2.258,2.258,0,0,1-.72-1.662V297.941a2.28,2.28,0,0,1,3.891-1.612l46.076,46.076a2.284,2.284,0,0,1-.086,3.31A78.431,78.431,0,0,1,745.127,365.7C745.08,365.7,745.033,365.7,744.986,365.7Z" transform="translate(-431.192 -209.476)" fill="#6c63ff"/>
    <path id="Path_7" data-name="Path 7" d="M745.247,409.978a113.5,113.5,0,0,1-29.78,33.837c-26.558,20.367-60.2,31.413-93.382,33.73a185.533,185.533,0,0,1-50.929-3.459c-17.026-3.567-33.266-9.849-48.994-17.188-16.013-7.473-31.537-15.949-47.48-23.562-15.927-7.608-32.3-14.1-49.447-18.341,1.255-.221,2.473-.463,3.659-.738q1.681.436,3.352.905c33.535,9.375,63.133,27.851,94.621,42.124,15.793,7.161,32.14,13,49.237,16.127a184.882,184.882,0,0,0,51.715,2.026c33.094-3.33,66.759-15.539,92.2-37.383a107.467,107.467,0,0,0,24.753-30.664C744.946,408.254,745.1,409.116,745.247,409.978Z" transform="translate(-309.517 -252.299)" fill="#090118"/>
    <path id="Path_8" data-name="Path 8" d="M353.054,593.035c33.04,9.235,62.254,27.307,93.225,41.483-.318.447-.636.894-.959,1.342-.787-.361-1.568-.722-2.349-1.089-16.013-7.473-31.537-15.949-47.48-23.562-16.267-7.77-32.991-14.37-50.54-18.611a225.831,225.831,0,0,0-74.157-5.275c-.059-.539-.113-1.083-.162-1.622a227.531,227.531,0,0,1,82.422,7.333Z" transform="translate(-250.261 -320.255)" fill="#090118"/>
    <path id="Path_9" data-name="Path 9" d="M473.19,681.749H238.218a.617.617,0,1,1,0-1.233H473.19a.617.617,0,0,1,0,1.233Z" transform="translate(-237.602 -356.981)" fill="#fff"/>
    <circle id="Ellipse_2" data-name="Ellipse 2" cx="15.147" cy="15.147" r="15.147" transform="translate(80.518 211.274)" fill="#a0616a"/>
    <path id="Path_10" data-name="Path 10" d="M228.915,540.442l.353,7.553L200.3,552.953l-.522-11.147Z" transform="translate(-76.572 -207.138)" fill="#a0616a"/>
    <path id="Path_11" data-name="Path 11" d="M490.263,692.677l.8,17.17-.308.015a11.714,11.714,0,0,1-6.795-1.643,5.864,5.864,0,0,1-3-4.6h0l-.491-10.487Z" transform="translate(-330.689 -361.642)" fill="#2f2e41"/>
    <path id="Path_12" data-name="Path 12" d="M245.7,542.469h7.561l3.6-29.164H245.7Z" transform="translate(-94.172 -196.737)" fill="#a0616a"/>
    <path id="Path_13" data-name="Path 13" d="M480.18,712.5H495.07a9.489,9.489,0,0,1,9.489,9.489v.308H480.18Z" transform="translate(-330.576 -369.241)" fill="#2f2e41"/>
    <path id="Path_14" data-name="Path 14" d="M361.256,661.5a6.625,6.625,0,0,0,1.542-10.041l6.035-60.041-14.373,1-1.413,58.7a6.661,6.661,0,0,0,8.208,10.375Z" transform="translate(-281.105 -322.831)" fill="#a0616a"/>
    <path id="Path_15" data-name="Path 15" d="M368.858,591.386l-14.893-1.815a2.971,2.971,0,0,1-2.5-3.736l3.966-14.423a8.25,8.25,0,0,1,16.373,2.044l.388,14.9a2.971,2.971,0,0,1-3.329,3.025Z" transform="translate(-281.2 -312.394)" fill="#6c63ff"/>
    <path id="Path_16" data-name="Path 16" d="M370.408,671.869a10.276,10.276,0,0,1-7.792-16.036l9.728-10.1,35.462-31.761,18.958-15.732a8.489,8.489,0,0,1,13.662,4.5l9.9,40.068a2.769,2.769,0,0,1-1.754,3.278l-10.8,3.887a2.775,2.775,0,0,1-3.622-1.9l-4.107-15.4L407.2,654.518l7.131,2.625a2.787,2.787,0,0,1,1.712,3.358l-2.3,8.164a2.764,2.764,0,0,1-2.59,2.02Z" transform="translate(-284.833 -324.697)" fill="#2f2e41"/>
    <path id="Path_17" data-name="Path 17" d="M369.549,631.92l-.938-34.261-5.917-15.027A22.613,22.613,0,0,1,379.142,552.2q.731-.152,1.457-.3h0a22.609,22.609,0,0,1,26.9,19.965l2.781,25.793-.011.049c-4.434,19.721-17.264,30.575-40.377,34.156Z" transform="translate(-284.943 -307.521)" fill="#6c63ff"/>
    <path id="Path_18" data-name="Path 18" d="M394.094,619.515a6.5,6.5,0,0,1,1.019-.076l17.12-25.345-3.242-6.686,9.45-6.212,6.89,11.278a4.934,4.934,0,0,1-.563,5.894l-23.431,25.725a6.474,6.474,0,1,1-7.244-4.579Z" transform="translate(-295.494 -318.914)" fill="#a0616a"/>
    <path id="Path_19" data-name="Path 19" d="M418.876,585.13a2.772,2.772,0,0,1-1.764-1.492l-5.921-12.608a7.707,7.707,0,0,1,12.815-8.567l9.355,10.381a2.776,2.776,0,0,1-.526,4.169l-11.675,7.756A2.772,2.772,0,0,1,418.876,585.13Z" transform="translate(-303.636 -310.421)" fill="#6c63ff"/>
    <path id="Path_20" data-name="Path 20" d="M685.724,538.724h-50a2.717,2.717,0,0,1,0-5.435h50a2.717,2.717,0,0,1,0,5.435Z" transform="translate(-389.151 -300.553)" fill="#ccc"/>
    <path id="Path_21" data-name="Path 21" d="M609.635,539.415a5.706,5.706,0,1,1,5.706-5.706A5.706,5.706,0,0,1,609.635,539.415Z" transform="translate(-378.006 -298.526)" fill="#3f3d56"/>
    <path id="Path_22" data-name="Path 22" d="M685.724,565.16h-50a2.717,2.717,0,0,1,0-5.435h50a2.717,2.717,0,0,1,0,5.435Z" transform="translate(-389.151 -310.685)" fill="#ccc"/>
    <path id="Path_23" data-name="Path 23" d="M609.635,565.851a5.706,5.706,0,1,1,5.706-5.706A5.706,5.706,0,0,1,609.635,565.851Z" transform="translate(-378.006 -308.658)" fill="#3f3d56"/>
    <path id="Path_24" data-name="Path 24" d="M685.724,591.6h-50a2.717,2.717,0,0,1,0-5.435h50a2.717,2.717,0,0,1,0,5.435Z" transform="translate(-389.151 -320.817)" fill="#ccc"/>
    <path id="Path_25" data-name="Path 25" d="M609.635,592.286a5.706,5.706,0,1,1,5.706-5.706A5.706,5.706,0,0,1,609.635,592.286Z" transform="translate(-378.006 -318.791)" fill="#3f3d56"/>
    <path id="Path_26" data-name="Path 26" d="M741.439,483.995h20.651a.543.543,0,0,0,.544-.543V355.782a.543.543,0,1,0-1.087,0V482.908H741.439a.543.543,0,1,0,0,1.087Z" transform="translate(-430.502 -232.31)" fill="#3f3d56"/>
    <path id="Path_27" data-name="Path 27" d="M880.56,212.128h0a7,7,0,1,1,6.419-7.544A7,7,0,0,1,880.56,212.128Zm-.087-1.074h0a5.927,5.927,0,1,0-6.384-5.432A5.927,5.927,0,0,0,880.474,211.053Z" transform="translate(-481.131 -172.098)" fill="#ccc"/>
    <circle id="Ellipse_3" data-name="Ellipse 3" cx="4.31" cy="4.31" r="4.31" transform="translate(419.238 13.435)" fill="#ccc"/>
    <circle id="Ellipse_4" data-name="Ellipse 4" cx="2.264" cy="2.264" r="2.264" transform="translate(442.471 1.939)" fill="#ccc"/>
    <path id="Path_28" data-name="Path 28" d="M823.911,437.621a7,7,0,1,1-1.983-9.706h0A7.012,7.012,0,0,1,823.911,437.621Zm-10.789-7.129a5.927,5.927,0,1,0,8.212-1.678h0A5.934,5.934,0,0,0,813.122,430.492Z" transform="translate(-457.395 -259.72)" fill="#ccc"/>
    <circle id="Ellipse_5" data-name="Ellipse 5" cx="4.31" cy="4.31" r="4.31" transform="translate(370.597 195.04)" fill="#ccc"/>
    <circle id="Ellipse_6" data-name="Ellipse 6" cx="2.264" cy="2.264" r="2.264" transform="translate(384.667 219.172)" fill="#ccc"/>
    <path id="Path_29" data-name="Path 29" d="M549.423,247.329a7,7,0,1,1,9.39,3.156h0A7.012,7.012,0,0,1,549.423,247.329ZM561,241.574a5.927,5.927,0,1,0-2.67,7.945h0a5.934,5.934,0,0,0,2.67-7.945Z" transform="translate(-356.834 -187.071)" fill="#ccc"/>
    <circle id="Ellipse_7" data-name="Ellipse 7" cx="4.31" cy="4.31" r="4.31" transform="translate(165.514 52.442)" fill="#ccc"/>
    <circle id="Ellipse_8" data-name="Ellipse 8" cx="2.264" cy="2.264" r="2.264" transform="translate(142.424 53.805)" fill="#ccc"/>
    <path id="Path_30" data-name="Path 30" d="M395.478,511.27l-.631-1.609a13.712,13.712,0,0,0-10.365-8.492,11.846,11.846,0,0,0-11.495,5.33,25.961,25.961,0,0,0-2.425,5.675c-.2.59-.4,1.017-.784,1.146-.433.156-.864-.111-1.578-.554a.988.988,0,0,0-1.5.973l.749,5.347-.627-.558c-4.078-3.63-4.916-10.46-1.97-14.794l-6.7,1.377.3-.576A22.9,22.9,0,0,1,371.8,493.262l-6.422-1.414.649-.4a18.578,18.578,0,0,1,19.328.248,21.92,21.92,0,0,1,10.087,17.845Z" transform="translate(-283.804 -283.523)" fill="#2f2e41"/>
  </g>
</svg>
